<svg viewBox="0 0 1080 1080" xmlns="http://www.w3.org/2000/svg" xml:space="preserve" style="fill-rule:evenodd;clip-rule:evenodd;stroke-linejoin:round;stroke-miterlimit:2"><g transform="translate(-417.384 -421.594) scale(1.77195)"><path d="M803.933 312.662a33.917 33.917 0 0 0-33.917-33.917H310.583a33.917 33.917 0 0 0-33.917 33.917v459.433a33.915 33.915 0 0 0 33.917 33.917h459.433a33.917 33.917 0 0 0 33.917-33.917V312.662Z" style="fill:none"/><clipPath id="a"><path d="M803.933 312.662a33.917 33.917 0 0 0-33.917-33.917H310.583a33.917 33.917 0 0 0-33.917 33.917v459.433a33.915 33.915 0 0 0 33.917 33.917h459.433a33.917 33.917 0 0 0 33.917-33.917V312.662Z"/></clipPath><g clip-path="url(#a)"><g transform="translate(-429.599 -428.565) scale(1.79587)"><path d="M303.105 469.852c5.948-23.228 23.219-38.062 44.428-49.046 13.453-6.967 36.739-26.871 46.347-27.673 144.757-12.083 283.742-23.693 379.027 5.174 5.001 64.076 5.018 163.233 4.301 201.741-.19 10.18-4.513 19.985-8.606 29.308-4.187 9.536-9.692 20.197-16.515 27.911-6.749 7.632-15.295 13.849-24.422 18.375-9.614 4.769-27.603 10.119-33.262 10.235-136.138 2.787-264.509 10.895-387.079 5.928-3.275-70.532-5.79-150.451-4.219-221.953Z" style="fill:none"/><clipPath id="b"><path d="M303.105 469.852c5.948-23.228 23.219-38.062 44.428-49.046 13.453-6.967 36.739-26.871 46.347-27.673 144.757-12.083 283.742-23.693 379.027 5.174 5.001 64.076 5.018 163.233 4.301 201.741-.19 10.18-4.513 19.985-8.606 29.308-4.187 9.536-9.692 20.197-16.515 27.911-6.749 7.632-15.295 13.849-24.422 18.375-9.614 4.769-27.603 10.119-33.262 10.235-136.138 2.787-264.509 10.895-387.079 5.928-3.275-70.532-5.79-150.451-4.219-221.953Z"/></clipPath><g clip-path="url(#b)"><path style="fill:#fff" d="M72.854 72.327h934.292v922.184H72.854z" transform="matrix(.31425 0 0 .31425 370.378 371.125)"/><path d="M627.922 394.158c6.578-11.913 217.917-25.825 80.006 21.664-14.363 4.946-31.068 1.715-36.037 27.979-4.969 26.264-9.228 22.005-24.134 47.559-14.907 25.554-12.777 27.143-22.005 66.184s-73.545 38.293-100.519 65.267c-26.973 26.973-10.598 56.835-23.375 64.643-12.777 7.809-21.299 12.478-21.299 12.478s-4.42.233-10.235.465c-5.815.233-12.095.233-29.074.233-16.98 0-16.515-.233-30.936-.931-14.421-.697-22.097 0-40.705-.697-18.607-.698-11.242-9.744-19.383-9.744-8.141 0 .178-4.791.178-4.791 3.722-2.068 13.094-2.002 19.055-3.504 9.84-2.479 20.177-7.978 29.698-13.658 17.696-10.557 29.406-29.768 32.192-41.682 7.332-34.926 19.676-55.154 34.453-68.244 45.866 72.622 130.391 83.831 144.559-25.416 1.92-14.81-30.847-35.245-26.371-53.532 10.519-45.085 21.977-64.547 43.932-84.273Z" style="fill:#04294f"/><path d="m662.273 1103.94-88.667 7.39c-31.333 2.61-78.333-2.62-143.61 0-65.278 2.61-156.666 0-156.666 0l-52.43-33.68c43.792-41.38 71.193-97.346 94.762-156.712 15.404-67.917 33.69-117.583 53.476-157.752 235.969 84.541 384.895-8.632 443.406-286.402 33.834-25.167 62.678-81.941 85.56-176.468C926.25 175.535 1002.35 104.829 1116.28 76.789c73.3-14.541 121.75-37.607 155.08-66.309 0 0 72.48-19.548 81.67-19.772 9.2-.224 45.76-1.794 51.59 11.887 5.83 13.682 8.97 25.121 8.97 38.803 0 13.682 6.06 5.607 4.49 23.775-1.57 18.167-.68 31.849-.68 31.849l.48 14.582-12.66.691c-44.44 25.102-132.82 37.215-177.13 61.831-85.48 47.485-141.12 108.345-160.43 185.492-53.68 204.713-168.239 320.134-324.592 374.259L557.02 821.606c-23.433 20.484-52.234 51.297-65.711 88.982-17.444 48.779-23.642 105.262-54.594 167.372l41.482 31.96 184.076-5.98Zm554.987-18.05c-6.29 1.35-12.77 2.84-19.6 4.55-52.23 13.05-174.95 18.27-174.95 18.27s-88.774-10.44-112.273-10.44c-23.5 0-109.666 2.61-109.666 2.61h-44.543l461.032-14.99Z" style="fill:#00aee0" transform="translate(393.272 393.854) scale(.27185)"/><path d="M555.995 687.201c6.747-23.724 20.067-46.27 44.043-50.344 32.492-5.521 99.162-45.345 109.031-100.308 7.362-33.191 28.205-52.773 66.581-59.603l9.885-.582-3.78 200.325s-34.599 11.921-48.845 14.247c-14.247 2.326-53.498 3.198-70.07 3.779-16.573.582-81.7-1.453-86.643-2.035-4.942-.581-20.202-5.479-20.202-5.479Z" style="fill:#f04e23"/><path d="M612.334 686.753c10.054-13.038 23.104-17.822 53.657-24.804 36.383-14.794 69.972-43.224 80.639-96.231 4.941-18.6 15.252-33.295 31.11-43.957l12.211 1.163-7.269 163.109s-100.017 6.687-103.506 6.687c-3.489 0-55.823-1.163-55.823-1.163l-11.019-4.804ZM345.302 685.603c10.701-.612 31.52-5.221 47.363-15.067 37.708-18.492 41.107-51.545 46.25-69.789 2.374-8.42 14.242-30.891 27.04-43.903 3.841-69.74 48.51-94.43 118.055-78.558 2.875-8.8 10.503-31.578 12.749-37.714 3.471-9.483 15.775-32.361 31.026-46.16l-57.452-.465s-9.847 16.365-40.902 25.238c-31.055 8.873-44.635 39.04-56.17 69.208-11.534 30.167-130.105 32.626-136.316 59.245-6.211 26.618-10.33 32.984-18.145 48.614-7.816 15.631-15.631 16.189-15.073 34.611.558 18.422 3.164 18.235.931 27.725-2.233 9.49-5.024 9.118-4.094 13.77.93 4.652.372 4.838 1.861 7.815 1.488 2.978-9.304 3.35 2.605 4.466 11.909 1.117 19.538.559 31.633.373 12.095-.187 8.639.591 8.639.591Z" style="fill:#ffb400"/><path d="M-296.988 476.797c38.423-82.729 85.881-178.161 101.264-207.152 27.807-52.405 37.432-45.988 62.031-110.159 24.598-64.17 101.602-43.849 156.147-68.448C76.999 66.44 293.038.131 293.038.131L482.339 1.2c-31.866 115.384-126.184 215.313-243.846 275.932C81.331 321.55.424 329.011-65.245 502.796c-41.108 177.477-136.533 284.177-264.113 340.957 0 0-8.366-4.133-17.511-10.645-.391 63.265-1.067 147.837-1.067 147.837l24.424 22.005c181.478-25.9 346.277-169.936 387.707-364.568C87.991 522.7 175.606 445.924 282.567 424.778l261.996-168.153c71.775-90.004 88.848-198.086 108.661-256.68 0 0-485.126-17.647-580.044 22.46-94.918 40.106-101.603 0-153.741 62.833-52.138 62.833-129.677 97.592-135.025 149.73-5.347 52.138-28.074 88.234-48.127 151.067-20.053 62.833-20.053 52.138-30.748 82.886-.777 2.233-1.624 4.881-2.527 7.876Z" style="fill:#f04e23" transform="translate(393.272 393.854) scale(.27185)"/><path d="M302.107 567.54c22.404-20.459 28.705-50.053 39.591-73.14 11.606-24.617 29.063-44.439 56.242-49.811 32.34-6.392 54.679-22.972 75.321-51.203l-76.932-1.136s-40.239 17.127-49.833 19.453c-9.595 2.326-18.317 9.304-27.621 17.735-9.304 8.432-15.41 9.886-16.573 19.19-1.163 9.304-3.198 11.92-3.779 16.572-.582 4.652-6.397 97.691-4.943 101.18 1.454 3.489 8.527 1.16 8.527 1.16Z" style="fill:#00aee0"/></g></g><path d="M540 258.659c155.276 0 281.341 126.065 281.341 281.341S695.276 821.341 540 821.341 258.659 695.276 258.659 540 384.724 258.659 540 258.659Zm0 45.955c129.913 0 235.386 105.473 235.386 235.386S669.913 775.386 540 775.386 304.614 669.913 304.614 540 410.087 304.614 540 304.614Z" style="fill:#04294f" transform="translate(276.666 278.746) scale(.48821)"/><path d="M537.815 514.379a2.168 2.168 0 0 1 1.665-.925 2.148 2.148 0 0 1 1.736.77c14.5 17.102 23.978 32.301 31.5 50.585a2.41 2.41 0 0 1-.04 1.91 2.226 2.226 0 0 1-1.4 1.222c-18.623 5.279-36.326 6.051-58.618 2.461a2.192 2.192 0 0 1-1.55-1.094 2.403 2.403 0 0 1-.186-1.951c6.737-19.917 14.914-36.065 26.893-52.978Z" style="fill:#00aee0" transform="matrix(-.06492 1.99002 -1.89617 -.06186 1614.981 -501.189)"/></g></g><path d="M1080 63.982c0-35.918-29.12-65.035-65.03-65.035H65.034C29.117-1.053 0 28.064 0 63.982v950.988c0 35.91 29.117 65.03 65.034 65.03h949.936c35.91 0 65.03-29.12 65.03-65.03V63.982Zm-56.67-8.537H56.67v963.715h966.66V55.445Z" style="fill:#04294f" transform="matrix(.92462 0 0 .92462 40.706 40.666)"/></svg>